PathFileType	4	(X/Y/Z)	C:\Users\mayra\OneDrive - Universitat Pompeu Fabra\PhD_Mayra\OpenSim\aurel\ID_04_Walking_14.trc
DataRate	CameraRate	NumFrames	NumMarkers	Units	OrigDataRate	OrigDataStartFrame	OrigNumFrames
250.00	250.00	19	18	mm	250.00	245	1846
Frame#	Time	r.should			l.should			c7			r.asis			l.asis			sacrum			r.bar1			l.bar1			r.knee1			l.knee1			r.bar2			r.mall			l.bar2			l.mall			r.met			r.heel			l.heel			l.met			
		X1	Y1	Z1	X2	Y2	Z2	X3	Y3	Z3	X4	Y4	Z4	X5	Y5	Z5	X6	Y6	Z6	X7	Y7	Z7	X8	Y8	Z8	X9	Y9	Z9	X10	Y10	Z10	X11	Y11	Z11	X12	Y12	Z12	X13	Y13	Z13	X14	Y14	Z14	X15	Y15	Z15	X16	Y16	Z16	X17	Y17	Z17	X18	Y18	Z18	

1195	4.780000	236.580357	1242.813349	406.924486	242.844254	1261.100054	133.925200	157.579154	1319.229364	263.705581	330.957621	874.688506	379.737526	323.145211	860.517919	146.982610	83.010413	916.466534	255.914867	229.635954	798.320591	472.621500	242.999211	759.271204	72.334878	283.677429	456.239462	380.990237	296.207964	465.672672	112.717248	268.231630	392.739743	378.839850	241.328999	63.682504	334.785879	262.084156	403.657019	116.867021	29.777020	190.458864	170.084745	379.425049	41.400984	314.110041	222.885013	24.642907	261.153460	-15.502944	221.578300	213.600934	96.234143	77.479288	187.796384	
1196	4.784000	241.067156	1243.365288	407.075286	247.085735	1261.400342	133.973286	161.955073	1319.667816	263.823509	335.127234	874.628901	380.313933	327.226788	861.235678	146.982282	87.326780	917.025328	256.397009	234.436557	798.217058	470.580786	246.953294	760.104001	71.943626	285.273820	456.081301	381.114721	304.365396	466.943145	113.015905	269.432753	392.626375	378.951848	241.375640	63.289471	334.093511	270.756036	404.656768	117.097430	40.197041	188.602984	169.707194	379.426092	41.399594	314.089507	224.329636	23.640769	260.157228	-5.116233	219.485164	212.907866	108.615652	77.034578	187.608495	
1197	4.788000	245.514229	1243.922234	407.208085	251.289427	1261.700869	134.010121	166.324928	1320.076823	263.929605	339.298904	874.666274	380.867481	331.226200	861.956060	146.981999	91.611162	917.566836	256.829470	240.152270	798.547447	466.360480	250.619560	761.033118	71.426749	286.783099	455.925763	381.263614	312.508523	468.240023	113.373816	270.585001	392.505676	379.083514	241.423577	62.801152	333.254665	279.466540	405.623943	117.329828	50.749205	186.467886	169.342086	379.430652	41.405231	314.069897	224.747911	23.362972	259.822577	5.222850	217.148393	212.346002	121.159628	76.465853	187.412843	
1198	4.792000	249.939725	1244.484425	407.325745	255.506635	1261.997223	134.057894	170.700520	1320.470214	264.058381	343.441457	874.795198	381.402880	335.307002	862.650335	147.030085	95.890105	918.098807	257.241815	245.871946	798.524082	464.721233	254.255623	761.876345	70.884362	288.246632	455.763519	381.438583	320.617229	469.514966	113.761216	271.707535	392.408609	379.240334	241.523027	63.514493	334.255040	288.228452	406.548262	117.625520	61.713453	184.440762	168.997183	379.443407	41.401759	314.055830	224.879622	23.339380	259.692550	15.634075	214.625716	211.795062	133.882642	75.795859	187.160581	
1199	4.796000	254.372805	1245.030999	407.460392	259.732336	1262.289643	134.109840	175.059065	1320.833802	264.186382	347.521484	874.978662	381.937772	339.407980	863.325119	147.045463	100.137159	918.594301	257.625937	250.273943	798.156619	464.187711	258.047283	762.822390	70.626989	289.625794	455.627203	381.621540	328.710616	470.798850	114.206895	272.733092	392.319769	379.390568	241.598845	63.712187	334.447086	296.965331	407.445431	117.961779	72.697386	182.136893	168.635488	379.460573	41.396216	314.035863	224.930406	23.324182	259.609938	26.148569	211.927623	211.265519	146.922544	75.268827	186.689317	
1200	4.800000	258.866847	1245.535970	407.535672	263.914526	1262.580991	134.164542	179.394275	1321.182132	264.346331	351.598591	875.238597	382.454187	343.549252	864.042163	147.000313	104.429111	919.056237	257.987887	254.005313	797.734141	463.992178	262.481928	763.904095	71.022242	290.947348	455.475569	381.808549	336.806417	472.054899	114.703357	273.734331	392.254442	379.525661	241.678923	63.784197	334.440678	305.689275	408.298463	118.349046	83.735414	179.656804	168.310076	379.475832	41.390058	314.014137	215.330690	29.963139	266.040027	36.825724	209.007323	210.796088	160.364449	74.888870	185.971975	
1201	4.804000	263.366550	1246.035337	407.623947	268.053293	1262.859225	134.212300	183.755398	1321.485877	264.499843	355.674863	875.543118	382.940054	347.624868	864.707947	146.975175	108.684458	919.512987	258.310556	257.389843	797.282398	463.909864	266.663611	764.689505	70.966356	292.259872	455.316156	382.019103	344.879001	473.276794	115.246117	274.719775	392.206281	379.695356	241.778880	63.831225	334.380627	314.395577	409.117043	118.791148	94.867490	177.043006	168.019369	379.494011	41.394573	314.001739	193.872958	44.904262	280.522287	47.610782	205.897093	210.350126	173.644245	74.106753	185.550302	
1202	4.808000	267.786682	1246.537924	407.762110	272.241324	1263.135791	134.267926	188.056529	1321.765423	264.643312	359.723210	875.861049	383.419514	351.741850	865.331352	146.969497	112.963058	919.908404	258.576959	260.637194	796.892405	463.911116	270.788193	765.363753	70.853353	293.495983	455.192655	382.227868	352.925152	474.486649	115.852594	275.659114	392.152846	379.873157	241.874486	63.878357	334.299356	323.023707	409.884989	119.268775	106.124602	174.303129	167.680681	379.513651	41.385468	313.989520	188.753501	48.637554	283.955067	58.470342	202.596337	209.897161	187.152684	73.214248	184.771553	
1203	4.812000	272.239536	1246.997952	407.847494	276.419103	1263.382912	134.330139	192.370623	1322.000146	264.792025	363.702059	876.167774	383.867085	355.881542	865.903139	146.899357	117.213540	920.263529	258.827955	263.795137	796.667099	463.997751	274.907172	765.928388	70.759870	294.725835	455.087423	382.431597	360.866725	475.655407	116.497390	276.652336	392.097503	379.971385	241.974220	63.918322	334.201813	331.603199	410.563469	119.832873	117.474787	171.424747	167.350829	379.535139	41.375551	313.972622	187.492669	49.616825	284.727842	69.458127	199.105576	209.514678	200.926661	72.277516	183.484897	
1204	4.816000	276.748776	1247.406840	407.915175	280.554652	1263.603210	134.376913	196.683437	1322.229385	264.957964	367.619216	876.477540	384.272099	360.105097	866.429567	146.832719	121.475093	920.608580	259.075284	266.896456	796.540737	464.133173	279.025972	766.407073	70.682593	296.022922	454.960734	382.624924	368.742436	476.816744	117.191568	277.672470	392.026305	380.045295	242.075294	63.956842	334.112376	340.058476	411.208898	120.433003	129.197225	168.770194	166.934967	379.557729	41.375205	313.963115	187.179014	49.968623	284.846783	79.244569	195.867836	208.109289	214.635134	71.241014	182.806879	
1205	4.820000	281.178981	1247.802019	408.011556	284.684747	1263.775826	134.420574	200.964615	1322.430491	265.105546	371.496916	876.783013	384.625733	364.238262	866.890907	146.789998	125.729576	920.901000	259.299427	269.981474	796.575665	464.326560	283.233702	766.826093	70.670187	297.304511	454.847753	382.795393	376.512766	477.969378	117.930733	278.727204	391.956866	380.132794	242.169380	63.994229	334.022373	348.462522	411.817580	121.068910	141.475722	166.379303	166.374713	379.581600	41.362230	313.943326	186.282009	50.889790	285.273731	87.515734	192.924321	205.380455	228.367671	70.163369	182.222113	
1206	4.824000	285.572022	1248.173952	408.106387	288.827032	1263.926268	134.460747	205.258429	1322.583795	265.247583	375.400037	877.071023	384.942234	368.337482	867.325127	146.722808	129.957080	921.164751	259.481400	273.077369	796.664357	464.503139	287.492067	767.208457	70.679374	298.617214	454.744637	382.947385	384.206444	479.100645	118.718170	279.793680	391.867399	380.190998	242.273211	64.029291	333.926827	356.947094	412.260324	121.721357	154.055238	163.766593	165.764168	378.074586	40.451877	313.995332	184.427574	52.702583	286.211818	99.059790	189.241305	204.734385	242.214829	69.058597	181.668296	
1207	4.828000	290.051281	1248.479605	408.184052	292.970806	1264.042854	134.502187	209.568411	1322.685719	265.432358	379.281223	877.338469	385.253161	372.478694	867.725253	146.668255	134.248734	921.378374	259.635597	276.189178	796.800792	464.662313	291.755259	767.526805	70.739202	300.004303	454.611778	383.097291	391.753823	480.211020	119.529575	280.951053	391.757369	380.219668	242.280379	64.148858	333.965838	365.576267	412.525326	122.361608	167.312548	161.489308	164.865851	374.773830	38.399871	314.023942	184.011504	53.234681	286.335409	112.398669	185.247064	204.841226	256.205082	67.967393	181.072816	
1208	4.832000	294.537127	1248.712540	408.242345	297.065556	1264.132261	134.545967	213.853538	1322.767019	265.586883	383.068293	877.564788	385.539562	376.713514	868.081450	146.646574	138.487816	921.554744	259.756804	279.244840	797.041297	464.828849	296.193182	767.881393	70.985392	301.463246	454.463214	383.211553	399.138629	481.284231	120.376371	282.189757	391.648352	380.248338	242.151439	64.369068	334.157944	373.767078	412.959874	123.127677	179.923207	158.528060	164.359763	374.936074	37.959062	313.444048	183.951542	53.435784	286.270678	124.536417	181.161821	204.616606	270.324498	66.877909	180.459678	
1209	4.836000	298.998624	1248.947263	408.289373	301.154345	1264.192104	134.588659	218.126118	1322.836637	265.759319	386.821300	877.748609	385.779887	380.960405	868.401229	146.675408	142.722622	921.704292	259.827197	282.203853	797.256589	465.064138	300.737798	768.291652	71.299993	303.042352	454.317778	383.308560	406.395137	482.363254	121.240728	283.463418	391.534597	380.260617	242.204234	64.445794	334.120929	381.704926	413.478166	123.906448	192.333505	155.412495	164.003238	377.302736	38.490050	312.072337	183.976710	53.583849	286.143094	136.528715	176.953718	204.310119	284.559250	65.739989	179.842159	
1210	4.840000	303.440899	1249.137044	408.366024	305.237025	1264.204741	134.627849	222.427472	1322.854638	265.933752	390.581429	877.892911	386.017799	385.265470	868.718922	146.702781	146.971077	921.807051	259.875953	285.370588	797.429085	465.211242	304.655194	768.210173	71.529657	304.699183	454.155564	383.371681	413.458019	483.438194	122.121036	284.826547	391.418248	380.252093	242.302537	64.505175	334.030509	389.497519	414.013296	124.682203	204.645023	152.524278	163.544729	379.503578	39.524827	311.359853	184.041008	53.707559	286.015213	148.525834	172.446996	204.059005	298.868448	64.585336	179.178029	
1211	4.844000	307.866007	1249.248028	408.447683	309.321463	1264.189243	134.663209	226.687282	1322.842121	266.117275	394.377321	878.009319	386.271596	389.614552	868.959308	146.772876	151.208773	921.869934	259.867787	288.460374	797.610223	465.382934	308.066517	767.819703	71.903363	306.436419	453.977704	383.405447	420.326620	484.457105	123.031214	286.311686	391.280442	380.247027	242.428198	64.551428	333.934546	397.231877	414.584100	125.454783	217.004299	149.846941	162.999541	379.632145	40.473010	312.963992	184.109628	53.847142	285.877764	160.483629	167.661846	203.872785	313.296199	63.440397	178.543061	
1212	4.848000	312.324643	1249.319315	408.510625	313.383579	1264.143586	134.700477	230.948150	1322.781563	266.275167	398.181856	878.082454	386.542231	393.979698	869.119704	146.894246	155.430049	921.886802	259.820014	291.587681	797.728121	465.545297	311.945230	767.644167	71.944445	308.298409	453.770459	383.433282	427.060068	485.466272	123.933636	287.868947	391.135335	380.207866	242.561728	64.590394	333.820611	404.774487	415.175259	126.200974	229.007900	146.594048	162.126586	379.700899	40.699899	313.350797	184.180558	54.001577	285.758644	172.944009	162.728757	203.754976	327.777296	62.326960	177.862674	
1213	4.852000	316.767603	1249.359608	408.578873	317.424595	1264.034271	134.750038	235.215276	1322.679281	266.448557	401.928931	878.100038	386.804909	398.390174	869.247675	147.057846	159.666255	921.835423	259.727836	294.960439	797.781587	465.656161	315.974385	767.499685	71.938835	310.231030	453.538567	383.441031	433.623344	486.413956	124.846950	289.526731	391.017258	380.143583	242.710054	64.626217	333.704680	412.220955	415.748537	126.913249	240.305573	143.097907	160.704046	379.764795	40.745098	313.428611	184.247732	54.112688	285.619676	185.779139	157.347560	203.926086	342.375636	61.247528	177.230477	
